<svg width="256" height="256" viewBox="0 0 256 256" fill="none" xmlns="http://www.w3.org/2000/svg" role="img" aria-label="Lexi logo">
  <rect width="256" height="256" rx="56" fill="#18181b"/>
  <rect x="1" y="1" width="254" height="254" rx="55" stroke="#3f3f46" stroke-width="2"/>
  <g transform="translate(68 68) scale(5)" fill="none" stroke="#fafafa" stroke-width="1.6" stroke-linecap="round" stroke-linejoin="round">
    <path d="M22 7.7c0-.6-.4-1.2-.8-1.5l-6.3-3.9a1.72 1.72 0 0 0-1.7 0l-10.3 6c-.5.2-.9.8-.9 1.4v6.6c0 .5.4 1.2.8 1.5l6.3 3.9a1.72 1.72 0 0 0 1.7 0l10.3-6c.5-.3.9-1 .9-1.5Z"/>
    <path d="M10 21.9V14L2.1 9.1"/>
    <path d="m10 14 11.9-6.9"/>
    <path d="M14 19.8v-8.1"/>
    <path d="M18 17.5V9.4"/>
  </g>
</svg>
